<?xml version="1.0" standalone="no"?>
<!DOCTYPE svg PUBLIC "-//W3C//DTD SVG 20010904//EN"
 "http://www.w3.org/TR/2001/REC-SVG-20010904/DTD/svg10.dtd">
<svg version="1.0" xmlns="http://www.w3.org/2000/svg"
 width="320.000000pt" height="320.000000pt" viewBox="0 0 320.000000 320.000000"
 preserveAspectRatio="xMidYMid meet">

<g transform="translate(0.000000,320.000000) scale(0.100000,-0.100000)"
fill="#A10103" stroke="none">
<path d="M2190 2509 c-209 -18 -316 -46 -454 -117 -107 -55 -243 -182 -297
-277 -102 -177 -149 -376 -149 -630 0 -306 -88 -547 -259 -706 -67 -63 -136
-105 -261 -157 -22 -9 -17 -11 33 -11 107 -2 257 28 356 71 l43 18 -32 -37
c-41 -47 -68 -107 -76 -170 l-6 -48 20 30 c44 69 100 94 208 95 86 0 227 -34
351 -84 48 -20 90 -36 94 -36 3 0 26 50 50 112 35 88 53 121 87 155 83 82 227
130 337 113 28 -4 105 -11 173 -15 l122 -7 0 134 c0 437 -119 683 -352 729
l-58 12 43 32 c73 56 120 140 158 282 17 62 22 119 26 275 3 108 3 208 -1 222
-7 29 -1 28 -156 15z m-126 -316 c-1 -181 -4 -218 -22 -286 -47 -172 -130
-257 -227 -233 -24 6 -25 9 -25 87 l0 80 -36 -3 -35 -3 1 -558 c0 -306 -3
-557 -8 -557 -5 0 -31 6 -58 14 -126 37 -266 41 -359 10 l-40 -14 30 22 c55
39 169 164 204 221 91 153 129 307 141 569 14 296 56 464 155 623 68 109 244
268 269 244 6 -5 10 -99 10 -216z m-103 -553 c102 0 135 -17 186 -94 40 -58
79 -184 66 -205 -6 -9 -32 -27 -59 -41 -43 -22 -62 -25 -149 -25 -92 0 -104 2
-155 30 l-55 30 -3 150 c-1 82 0 155 2 161 3 9 15 10 43 3 21 -5 77 -9 124 -9z
m278 -508 l1 -93 -27 19 c-106 75 -271 80 -388 11 l-35 -21 0 127 c0 70 3 125
8 123 99 -51 107 -53 208 -53 92 0 105 2 160 30 l59 31 7 -41 c3 -22 7 -82 7
-133z m-94 -71 c73 -32 95 -57 95 -105 0 -78 -6 -86 -64 -86 -110 0 -231 -53
-311 -134 -28 -29 -56 -51 -63 -48 -9 3 -12 47 -12 162 l0 159 32 23 c87 61
222 74 323 29z"/>
<path d="M1765 2479 c-49 -4 -114 -10 -143 -12 -29 -3 -58 -9 -65 -14 -7 -5
-37 -17 -67 -27 -30 -10 -87 -36 -127 -57 -43 -23 -86 -39 -106 -39 -47 0
-131 31 -202 74 -195 118 -376 97 -549 -65 -59 -55 -166 -192 -135 -174 8 5
37 27 64 50 87 70 144 90 260 90 106 0 123 -6 275 -89 25 -14 68 -31 95 -38
28 -7 52 -13 54 -14 1 -2 -8 -18 -22 -36 -26 -33 -90 -161 -99 -196 -5 -18
-18 -20 -134 -24 -206 -8 -323 -61 -406 -183 -51 -77 -90 -260 -58 -280 6 -3
10 1 10 10 0 27 38 91 69 118 50 42 136 69 236 74 l90 4 -66 -23 c-87 -31
-140 -67 -189 -129 -51 -64 -80 -157 -80 -253 l0 -71 25 60 c45 110 129 154
311 162 74 4 113 2 118 -5 9 -16 -21 -211 -46 -290 -72 -236 -227 -407 -438
-483 l-65 -24 40 -3 c58 -5 219 17 295 40 357 110 560 446 560 924 0 255 80
510 209 670 79 97 224 196 346 234 42 13 70 31 45 28 -8 0 -55 -5 -105 -9z"/>
</g>
</svg>
